<svg width="120" height="86" viewBox="0 0 120 86" fill="none" xmlns="http://www.w3.org/2000/svg">
<path d="M24.4011 42.6945L49.0501 0H98.3507L73.7017 42.6972L24.4011 42.6945Z" fill="#71B8FA"/>
<path d="M98.3507 85.3891H49.0501L24.3984 42.6945H73.699L98.3507 85.3891Z" fill="#4DE8E8"/>
<path d="M47.9563 40.849H97.2596L97.8254 39.871H48.522L47.9563 40.849ZM50.2247 36.9182H99.5281L98.9623 37.8962H49.659L50.2247 36.9182ZM51.9275 33.9681H101.231L100.665 34.9488H51.3617L51.9275 33.9681ZM53.6329 31.0045H102.917L102.352 31.9852H53.0482L53.6329 31.0045ZM55.3356 28.0571H104.639L104.073 29.0378H54.7698L55.3356 28.0571ZM57.0383 25.0935H106.342L105.776 26.0742H56.4725L57.0383 25.0935ZM58.7329 22.1757H108.036L107.47 23.1564H58.1672L58.7329 22.1757ZM60.4357 19.2121H109.739L109.173 20.1901H59.8699L60.4357 19.2121ZM62.1384 16.2485H111.442L110.876 17.2265H61.5726L62.1384 16.2485ZM63.8519 13.3254H113.155L112.589 14.3033H63.2861L63.8519 13.3254ZM65.5546 10.3618H114.858L114.292 11.3425H64.9888L65.5546 10.3618ZM67.2573 7.41167H116.561L115.995 8.39235H66.6915L67.2573 7.41167ZM68.96 4.44808H118.263L117.698 5.42876H68.3942L68.96 4.44808ZM70.6627 1.48449H119.966L119.4 2.46518H70.097L70.6627 1.48449Z" fill="#1C2B45"/>
<path d="M71.4575 83.0317H22.1542L22.72 84.0123H72.0233L71.4575 83.0317ZM70.3179 81.0595H21.0146L20.4488 80.0788H69.7521L70.3179 81.0595ZM68.6152 78.0959H19.3118L18.7461 77.118H68.0494L68.6152 78.0959ZM66.9125 75.1458H17.6091L17.0434 74.1678H66.3467L66.9125 75.1458ZM65.199 72.2119H15.8956L15.3299 71.2339H64.6332L65.199 72.2119ZM63.4963 69.2618H14.1929L13.6272 68.2838H62.9305L63.4963 69.2618ZM61.7908 66.2982H12.4875L11.9217 65.3175H61.2251L61.7908 66.2982ZM60.0881 63.3346H10.7848L10.2217 62.3566H59.5412L60.0881 63.3346ZM58.3854 60.3845H9.08208L8.519 59.4038H57.8223L58.3854 60.3845ZM56.6827 57.4209H7.37936L6.81358 56.4402H56.1169L56.6827 57.4209ZM54.98 54.4708H5.67665L5.11086 53.4901H54.4223L54.98 54.4708ZM53.2773 51.5072H3.97393L3.40816 50.5292H52.7115L53.2773 51.5072ZM51.5745 48.5436H2.27121L1.70544 47.5656H51.0088L51.5745 48.5436ZM49.8691 45.5935H0.565796L3.05176e-05 44.6155H49.3034L49.8691 45.5935Z" fill="#5E5CC2"/>
</svg>
