<svg width="78" height="86" viewBox="0 0 78 86" fill="none" xmlns="http://www.w3.org/2000/svg">
<path d="M109.067 42.5684L84.5361 85.059H35.4709L60.0022 42.5684H109.067Z" fill="#4DE8E8"/>
<path d="M35.4709 0.0777588H84.5361L109.067 42.5684L60.0049 42.571L35.4709 0.0777588Z" fill="#5E5CC2"/>
<path d="M92.8401 39.2355H43.7723L43.2092 38.2622H92.2771L92.8401 39.2355ZM90.5852 35.3235H41.5173L42.0804 36.2968H91.1482L90.5852 35.3235ZM88.8879 32.3874H39.82L40.3831 33.3634H89.451L88.8879 32.3874ZM87.1933 29.438H38.1255L38.6885 30.414H87.7564L87.1933 29.438ZM85.4987 26.5047H36.4309L36.994 27.4807H86.0618L85.4987 26.5047ZM83.8041 23.5552H34.7363L35.2913 24.5527H84.3592L83.8041 23.5552ZM82.1096 20.6058H33.0418L33.6048 21.5818H82.6726L82.1096 20.6058ZM80.415 17.6698H31.3472L31.9102 18.6431H80.978L80.415 17.6698ZM78.7177 14.7204H29.6606L30.2237 15.6937H79.2915L78.7177 14.7204ZM77.0231 11.7843H27.9553L28.5184 12.7576H77.5862L77.0231 11.7843ZM75.3286 8.83489H26.2607L26.8238 9.81089H75.8916L75.3286 8.83489ZM73.634 5.88546H24.5661L25.1292 6.86146H74.1971L73.634 5.88546ZM71.9394 2.94943H22.8715L23.4346 3.92543H72.5025L71.9394 2.94943ZM70.2421 0H21.1743L21.7374 0.975998H70.8052L70.2421 0Z" fill="#71B8FA"/>
<path d="M59.8011 42.4584H10.7333L10.1702 43.4317H59.2381L59.8011 42.4584ZM58.1066 45.4079H9.03872L8.47563 46.3838H57.5435L58.1066 45.4079ZM56.412 48.3439H7.34412L6.78102 49.3199H55.8489L56.412 48.3439ZM54.7174 51.2933H5.64952L5.08649 52.2693H54.1543L54.7174 51.2933ZM53.0201 54.2427H3.9523L3.3892 55.2187H52.457L53.0201 54.2427ZM51.3255 57.1788H2.2577L1.69729 58.1548H50.7651L51.3255 57.1788ZM49.6309 60.1282H0.5631L0 61.1042H49.0678L49.6309 60.1282Z" fill="#5E5CC2"/>
</svg>
