<svg width="43" height="85" viewBox="0 0 43 85" fill="none" xmlns="http://www.w3.org/2000/svg">
<path d="M42.2038 42.4906L17.6726 84.9812H-31.3926L-6.86134 42.4906H42.2038Z" fill="#4DE8E8"/>
<path d="M-31.3926 0H17.6726L42.2038 42.4906L-6.86134 42.4933L-31.3926 0Z" fill="#1C2B45"/>
<path d="M28.1001 45.2979H-20.9677L-20.4047 44.3246H28.6632L28.1001 45.2979ZM26.9686 47.258H-22.0858L-22.6489 48.2313H26.4189L26.9686 47.258ZM25.274 50.194H-23.7938L-24.3569 51.17H24.7109L25.274 50.194ZM23.5794 53.1434H-25.4884L-26.0515 54.1194H23.0163L23.5794 53.1434ZM21.8848 56.0928H-27.1803L-27.7434 57.0688H21.3244L21.8848 56.0928ZM20.1876 59.0423H-28.8803L-29.4433 60.0183H19.6245L20.1876 59.0423ZM18.493 61.9917H-30.5749L-31.1379 62.965H17.9299L18.493 61.9917ZM16.7984 64.9251H-32.2748L-32.8379 65.8983H16.23L16.7984 64.9251ZM15.1038 67.8745H-33.964L-34.5271 68.8505H14.5407L15.1038 67.8745ZM13.4092 70.8078H-35.6586L-36.2217 71.7811H12.8462L13.4092 70.8078ZM11.7147 73.7573H-37.3532L-37.9163 74.7333H11.1516L11.7147 73.7573ZM10.0174 76.7067H-39.0504L-39.6135 77.6827H9.45432L10.0174 76.7067ZM8.32281 79.6427H-40.745L-41.3054 80.6187H7.7624L8.32281 79.6427ZM6.62821 82.5921H-42.4396L-43 83.5681H6.06783L6.62821 82.5921Z" fill="#5E5CC2"/>
</svg>
